#!OML:ASF G:\JayActor3\Patient Classification 1\Patient 1\Session 6\male.ASF
:FULLY-SPECIFIED
:DEGREES
862
root 31.0522 15.2629 -10.8976 199.851 -43.1162 -182.813
lowerback 34.8798 0.758979 5.59983
upperback 15.9372 -0.767325 0.402424
thorax -0.049373 -1.36103 -2.28548
lowerneck 4.91606 3.60536 5.19394
upperneck -18.727 4.18336 -5.60245
head -6.2246 1.87724 -2.90297
rclavicle -2.46493e-014 -2.38542e-015
rhumerus -21.0109 6.03819 -85.9037
rradius 55.9205
rwrist -1.49478
rhand -26.07 -7.68577
rfingers 7.12502
rthumb 0.478146 -37.665
lclavicle -2.46493e-014 -2.38542e-015
lhumerus -9.18081 -15.0653 73.6163
lradius 59.8515
lwrist 34.4643
lhand -25.6293 3.94341
lfingers 7.12502
lthumb 0.903817 33.9212
rfemur -47.4382 -3.83629 22.0247
rtibia 62.6462
rfoot -29.8656 -15.6265
rtoes -1.51719
lfemur -58.2501 16.0133 -30.9653
ltibia 55.7964
lfoot -18.0264 4.04331
ltoes -5.41785
863
root 31.0041 15.2577 -10.9342 199.655 -43.1539 -182.612
lowerback 34.944 0.844259 5.46762
upperback 16.0255 -0.730371 0.439494
thorax 0.0252504 -1.36033 -2.18977
lowerneck 4.90419 3.61769 5.04679
upperneck -18.7018 4.18285 -5.62207
head -6.21742 1.89034 -2.88407
rclavicle -3.73715e-014 6.95746e-014
rhumerus -20.9332 6.25889 -85.8208
rradius 55.9229
rwrist -1.41729
rhand -26.0909 -7.65512
rfingers 7.12502
rthumb 0.457929 -37.6344
lclavicle -3.73715e-014 6.95746e-014
lhumerus -8.77929 -14.8295 73.439
lradius 60.0966
lwrist 34.4072
lhand -25.712 3.89224
lfingers 7.12502
lthumb 0.82391 33.8704
rfemur -47.0962 -3.93796 22.1811
rtibia 62.6169
rfoot -30.0855 -15.613
rtoes -1.73033
lfemur -58.075 15.886 -31.1179
ltibia 53.6397
lfoot -17.7263 4.11099
ltoes -5.3863
864
root 30.9531 15.2509 -10.9698 199.418 -43.1661 -182.368
lowerback 35.0089 0.912288 5.32742
upperback 16.0962 -0.714084 0.475814
thorax 0.0788177 -1.37057 -2.08393
lowerneck 4.91104 3.65406 4.83183
upperneck -18.6948 4.21394 -5.60756
head -6.22012 1.92052 -2.84579
rclavicle 9.54166e-015 3.35946e-014
rhumerus -20.892 6.544 -85.7424
rradius 55.9332
rwrist -1.37478
rhand -26.1133 -7.63027
rfingers 7.12502
rthumb 0.43635 -37.6096
lclavicle 9.54166e-015 3.35946e-014
lhumerus -8.43491 -14.522 73.2952
lradius 60.3633
lwrist 34.3911
lhand -25.8296 3.84218
lfingers 7.12502
lthumb 0.710362 33.8207
rfemur -46.7417 -4.08246 22.3679
rtibia 62.5891
rfoot -30.3096 -15.5377
rtoes -1.86922
lfemur -57.7817 15.7034 -31.1115
ltibia 51.6384
lfoot -17.1751 4.21494
ltoes -5.25084
865
root 30.8992 15.2429 -11.004 199.14 -43.1537 -182.081
lowerback 35.069 0.976108 5.22918
upperback 16.1499 -0.686321 0.488649
thorax 0.116617 -1.37067 -2.02768
lowerneck 4.90996 3.68392 4.65827
upperneck -18.6791 4.24322 -5.57608
head -6.21844 1.94554 -2.80846
rclavicle -2.94201e-014 -6.95746e-015
rhumerus -20.9033 6.77114 -85.6949
rradius 55.9587
rwrist -1.36932
rhand -26.1325 -7.62645
rfingers 7.12502
rthumb 0.417786 -37.6058
lclavicle -2.94201e-014 -6.95746e-015
lhumerus -8.09883 -14.276 73.1473
lradius 60.6146
lwrist 34.4205
lhand -25.9478 3.80405
lfingers 7.12502
lthumb 0.596129 33.783
rfemur -46.3798 -4.26951 22.5846
rtibia 62.5698
rfoot -30.5358 -15.4015
rtoes -1.94827
lfemur -57.3975 15.4541 -30.9239
ltibia 49.9929
lfoot -16.457 4.41343
ltoes -4.86863
866
root 30.8427 15.2327 -11.0364 198.823 -43.1159 -181.751
lowerback 35.1129 1.03827 5.17749
upperback 16.1908 -0.643502 0.476481
thorax 0.147686 -1.35815 -2.02645
lowerneck 4.87379 3.70425 4.54974
upperneck -18.6322 4.26628 -5.54211
head -6.19969 1.96281 -2.77914
rclavicle 2.14687e-014 -5.9039e-014
rhumerus -20.9501 6.90536 -85.6825
rradius 55.9694
rwrist -1.38839
rhand -26.1416 -7.63475
rfingers 7.12502
rthumb 0.408987 -37.6141
lclavicle 2.14687e-014 -5.9039e-014
lhumerus -7.76148 -14.1077 72.998
lradius 60.825
lwrist 34.4739
lhand -26.0443 3.7849
lfingers 7.12502
lthumb 0.502953 33.764
rfemur -46.0256 -4.48991 22.8272
rtibia 62.5788
rfoot -30.7478 -15.2256
rtoes -2.08549
lfemur -56.9754 15.1561 -30.5659
ltibia 48.8784
lfoot -15.6739 4.69484
ltoes -4.05756
867
root 30.7837 15.2193 -11.0671 198.487 -43.0568 -181.393
lowerback 35.126 1.10004 5.17185
upperback 16.2187 -0.583205 0.437922
thorax 0.176637 -1.33095 -2.08246
lowerneck 4.80809 3.71077 4.53149
upperneck -18.5579 4.27737 -5.52215
head -6.1652 1.96912 -2.76714
rclavicle 3.57812e-014 -1.25234e-014
rhumerus -21.0363 6.95049 -85.7002
rradius 55.9804
rwrist -1.44881
rhand -26.1378 -7.65154
rfingers 7.12502
rthumb 0.412612 -37.6309
lclavicle 3.57812e-014 -1.25234e-014
lhumerus -7.41903 -14.0404 72.8489
lradius 60.979
lwrist 34.5371
lhand -26.1077 3.79802
lfingers 7.12502
lthumb 0.441756 33.7773
rfemur -45.704 -4.73783 23.0825
rtibia 62.6429
rfoot -30.937 -15.0181
rtoes -2.31219
lfemur -56.5799 14.8292 -30.0852
ltibia 48.3794
lfoot -14.9799 4.98672
ltoes -2.62926
868
root 30.7226 15.2018 -11.0959 198.147 -42.9842 -181.024
lowerback 35.0982 1.15167 5.17362
upperback 16.2361 -0.529942 0.390815
thorax 0.207689 -1.30459 -2.14975
lowerneck 4.73085 3.72307 4.53681
upperneck -18.4836 4.29606 -5.51369
head -6.1274 1.97796 -2.76282
rclavicle -5.24792e-014 -1.68967e-014
rhumerus -21.1381 6.97045 -85.729
rradius 55.9704
rwrist -1.52589
rhand -26.1133 -7.68548
rfingers 7.12502
rthumb 0.436363 -37.6648
lclavicle -5.24792e-014 -1.68967e-014
lhumerus -7.10146 -13.9904 72.7359
lradius 61.0754
lwrist 34.5813
lhand -26.1293 3.8672
lfingers 7.12502
lthumb 0.420893 33.8465
rfemur -45.4366 -5.00913 23.3372
rtibia 62.79
rfoot -31.1006 -14.8002
rtoes -2.71112
lfemur -56.2713 14.5068 -29.5516
ltibia 48.4521
lfoot -14.4655 5.20536
ltoes -0.636469
869
root 30.6599 15.1798 -11.1233 197.825 -42.9024 -180.664
lowerback 35.0301 1.20008 5.18466
upperback 16.2431 -0.473788 0.328988
thorax 0.241189 -1.27327 -2.23864
lowerneck 4.65884 3.72984 4.5924
upperneck -18.4341 4.30878 -5.51806
head -6.09707 1.98058 -2.77118
rclavicle 5.84427e-014 -5.28767e-014
rhumerus -21.2632 6.92933 -85.7717
rradius 55.9515
rwrist -1.60705
rhand -26.0714 -7.72421
rfingers 7.12502
rthumb 0.476825 -37.7034
lclavicle 5.84427e-014 -5.28767e-014
lhumerus -6.79736 -14.0039 72.6483
lradius 61.1182
lwrist 34.6169
lhand -26.1206 3.99626
lfingers 7.12502
lthumb 0.429265 33.9756
rfemur -45.2416 -5.29201 23.573
rtibia 63.039
rfoot -31.2327 -14.5777
rtoes -3.24517
lfemur -56.0882 14.223 -29.038
ltibia 48.9431
lfoot -14.1607 5.36268
ltoes 1.57878
870
root 30.5963 15.1552 -11.1499 197.534 -42.8189 -180.347
lowerback 34.9433 1.24631 5.18814
upperback 16.2435 -0.419816 0.252641
thorax 0.273366 -1.24133 -2.33823
lowerneck 4.59685 3.73074 4.68743
upperneck -18.4302 4.31363 -5.52939
head -6.08212 1.97571 -2.78904
rclavicle 1.19271e-014 -1.13307e-014
rhumerus -21.4051 6.82713 -85.8246
rradius 55.9279
rwrist -1.68326
rhand -26.0147 -7.76499
rfingers 7.12502
rthumb 0.531505 -37.7441
lclavicle 1.19271e-014 -1.13307e-014
lhumerus -6.50483 -14.081 72.5895
lradius 61.1136
lwrist 34.6476
lhand -26.104 4.17636
lfingers 7.12502
lthumb 0.445262 34.1556
rfemur -45.107 -5.58367 23.7625
rtibia 63.389
rfoot -31.3156 -14.3571
rtoes -3.90444
lfemur -56.0205 13.9975 -28.6079
ltibia 49.6536
lfoot -14.043 5.45532
ltoes 3.75867
871
root 30.5327 15.1305 -11.1762 197.265 -42.7364 -180.08
lowerback 34.8738 1.29509 5.17557
upperback 16.2391 -0.365881 0.164257
thorax 0.293826 -1.20967 -2.44143
lowerneck 4.54128 3.72448 4.8056
upperneck -18.4798 4.30885 -5.53143
head -6.0854 1.96191 -2.80854
rclavicle -2.54444e-014 6.81831e-014
rhumerus -21.5554 6.65517 -85.8881
rradius 55.8966
rwrist -1.74226
rhand -25.957 -7.81498
rfingers 7.12502
rthumb 0.587239 -37.7939
lclavicle -2.54444e-014 6.81831e-014
lhumerus -6.2178 -14.2293 72.5543
lradius 61.0657
lwrist 34.6774
lhand -26.0925 4.38212
lfingers 7.12502
lthumb 0.456396 34.3614
rfemur -45.0084 -5.87283 23.8971
rtibia 63.8214
rfoot -31.341 -14.1443
rtoes -4.6647
lfemur -56.0346 13.8299 -28.275
ltibia 50.405
lfoot -14.0507 5.55032
ltoes 5.37298
872
root 30.4701 15.1091 -11.2027 197.02 -42.6576 -179.884
lowerback 34.8527 1.33876 5.10307
upperback 16.2263 -0.334541 0.0791929
thorax 0.285182 -1.19432 -2.50179
lowerneck 4.50741 3.72886 4.86951
upperneck -18.5901 4.31408 -5.50967
head -6.11308 1.95303 -2.81394
rclavicle 7.15625e-015 -2.16675e-014
rhumerus -21.713 6.50314 -85.9454
rradius 55.864
rwrist -1.79024
rhand -25.9107 -7.86976
rfingers 7.12502
rthumb 0.631996 -37.8486
lclavicle 7.15625e-015 -2.16675e-014
lhumerus -5.9726 -14.3783 72.5682
lradius 60.9798
lwrist 34.706
lhand -26.1088 4.54725
lfingers 7.12502
lthumb 0.440646 34.5265
rfemur -44.9192 -6.15243 23.9602
rtibia 64.3092
rfoot -31.2932 -13.944
rtoes -5.48449
lfemur -56.0583 13.7017 -28.045
ltibia 51.0876
lfoot -14.049 5.6757
ltoes 6.43431
873
root 30.4092 15.0929 -11.2296 196.79 -42.5823 -179.759
lowerback 34.908 1.38297 4.98995
upperback 16.2049 -0.313733 -0.0112959
thorax 0.239013 -1.18834 -2.54168
lowerneck 4.48145 3.73361 4.91072
upperneck -18.747 4.31778 -5.46832
head -6.15808 1.94169 -2.81047
rclavicle 6.36111e-015 1.98785e-016
rhumerus -21.8821 6.33232 -86.0086
rradius 55.8357
rwrist -1.82204
rhand -25.8876 -7.92259
rfingers 7.12502
rthumb 0.654281 -37.9013
lclavicle 6.36111e-015 1.98785e-016
lhumerus -5.74667 -14.5735 72.6091
lradius 60.8584
lwrist 34.7323
lhand -26.1564 4.65885
lfingers 7.12502
lthumb 0.394705 34.6382
rfemur -44.8178 -6.41962 23.9528
rtibia 64.8294
rfoot -31.1713 -13.7503
rtoes -6.30197
lfemur -56.011 13.5843 -27.8879
ltibia 51.6574
lfoot -14.0991 5.86107
ltoes 7.03378
874
root 30.3502 15.0815 -11.2574 196.58 -42.4935 -179.696
lowerback 35.0381 1.44635 4.8459
upperback 16.1714 -0.276871 -0.116003
thorax 0.154148 -1.17705 -2.58337
lowerneck 4.46662 3.72462 4.97161
upperneck -18.9355 4.30518 -5.41435
head -6.2159 1.91888 -2.80626
rclavicle -5.88403e-014 5.62561e-014
rhumerus -22.0704 6.08384 -86.0923
rradius 55.8042
rwrist -1.82253
rhand -25.8938 -7.9714
rfingers 7.12502
rthumb 0.648276 -37.9502
lclavicle -5.88403e-014 5.62561e-014
lhumerus -5.52597 -14.8678 72.6611
lradius 60.7025
lwrist 34.7482
lhand -26.2361 4.70008
lfingers 7.12502
lthumb 0.317671 34.6796
rfemur -44.7119 -6.65369 23.881
rtibia 65.3736
rfoot -30.9746 -13.5688
rtoes -7.0865
lfemur -55.8577 13.4839 -27.7822
ltibia 52.1144
lfoot -14.2371 6.0911
ltoes 7.27954
875
root 30.2924 15.0741 -11.2859 196.409 -42.3917 -179.693
lowerback 35.212 1.52436 4.67679
upperback 16.1249 -0.227387 -0.233243
thorax 0.0402023 -1.16065 -2.6279
lowerneck 4.4612 3.70509 5.05074
upperneck -19.1351 4.27964 -5.36219
head -6.27923 1.8882 -2.80536
rclavicle 6.91771e-014 -7.5737e-014
rhumerus -22.2651 5.77469 -86.1903
rradius 55.7568
rwrist -1.79889
rhand -25.9234 -7.99739
rfingers 7.12502
rthumb 0.619685 -37.9762
lclavicle 6.91771e-014 -7.5737e-014
lhumerus -5.31613 -15.2479 72.7299
lradius 60.5166
lwrist 34.7391
lhand -26.3473 4.66077
lfingers 7.12502
lthumb 0.210283 34.6404
rfemur -44.6285 -6.85748 23.7492
rtibia 65.9415
rfoot -30.7175 -13.3775
rtoes -7.74498
lfemur -55.6071 13.3853 -27.7175
ltibia 52.4713
lfoot -14.4713 6.33979
ltoes 7.25202
